<svg xmlns="http://www.w3.org/2000/svg" width="50.91" height="49.162" viewBox="0 0 50.91 49.162">
  <path id="about1" d="M25,1C11.224,1,0,10.879,0,23.188a20.869,20.869,0,0,0,7.219,15.5,11.178,11.178,0,0,1-3.688,4.969c-.816.676-1.6,1.254-2.219,1.813a4.473,4.473,0,0,0-.813.906A1.74,1.74,0,0,0,.219,47.75l.125.406.344.219a8.087,8.087,0,0,0,4.625.75,28.617,28.617,0,0,0,5.469-1.031,67.162,67.162,0,0,0,8.751-3.187,26.049,26.049,0,0,0,5.375.594c13.778,0,25-9.879,25-22.187S38.784,1,25,1Zm0,2C37.823,3,47.91,12.215,47.91,23.313S37.733,43.5,24.908,43.5a24.123,24.123,0,0,1-5.282-.562l-.344-.094L19,43a68.759,68.759,0,0,1-8.751,3.156,26.925,26.925,0,0,1-5.063.969,6.527,6.527,0,0,1-2.344-.344c.5-.426,1.176-.934,1.969-1.594A12.389,12.389,0,0,0,9.376,38.75l.156-.625-.5-.375A19,19,0,0,1,2,23.188C2,12.1,12.177,3,25,3Zm-1.188,9.813a.354.354,0,0,0-.406.375v2.625c0,.3.207.375.406.375h2.375a.354.354,0,0,0,.406-.375V13.188c0-.3-.207-.375-.406-.375Zm.094,7.281a.376.376,0,0,0-.406.406V33.906a.376.376,0,0,0,.406.406v.094h2.281A.376.376,0,0,0,26.6,34V20.5a.376.376,0,0,0-.406-.406Z" transform="translate(0.5 -0.5)" fill="#fff" stroke="#fff" stroke-width="2"/>
</svg>
