<svg xmlns="http://www.w3.org/2000/svg" width="613.037" height="418.147" viewBox="0 0 613.037 418.147">
  <g id="send-message-svgrepo-com" transform="translate(0.537 -96.908)">
    <g id="Group_109" data-name="Group 109">
      <path id="Path_84" data-name="Path 84" d="M447.2,110.224a16.586,16.586,0,0,0-19.953-12.336L12.778,195.675A16.588,16.588,0,0,0,.443,215.628l67.51,286.145a16.575,16.575,0,0,0,19.954,12.336l414.468-97.783a16.588,16.588,0,0,0,12.335-19.953Zm2.062,153.222-71-41.241,45.365-67.419Zm-407.815-18.5,70.718,40.033L67.085,353.611ZM61.6,218.24,393.657,139.9,263.887,332.752ZM96.433,478.01,77.572,398.071,141.1,301.363l119.807,67.821a16.578,16.578,0,0,0,21.932-5.174L359.7,249.788,459.752,307.9l18.86,79.939Z" fill="#fff" stroke="#fff" stroke-width="1"/>
      <path id="Path_85" data-name="Path 85" d="M595.413,108.58H491.2a16.587,16.587,0,1,0,0,33.174H595.413a16.587,16.587,0,0,0,0-33.174Z" fill="#fff" stroke="#fff" stroke-width="1"/>
      <path id="Path_86" data-name="Path 86" d="M577.9,193.062H508.714a16.587,16.587,0,0,0,0,33.174H577.9a16.587,16.587,0,0,0,0-33.174Z" fill="#fff" stroke="#fff" stroke-width="1"/>
      <path id="Path_87" data-name="Path 87" d="M561.295,277.544H525.321a16.587,16.587,0,1,0,0,33.174h35.974a16.587,16.587,0,0,0,0-33.174Z" fill="#fff" stroke="#fff" stroke-width="1"/>
    </g>
  </g>
</svg>
