<svg xmlns="http://www.w3.org/2000/svg" width="125.015" height="150" viewBox="0 0 125.015 150">
  <g id="LOGO" transform="translate(0 0)">
    <g id="Group_21" data-name="Group 21" transform="translate(0 0)">
      <g id="logo_10_" transform="translate(0 0)">
        <g id="Group_20" data-name="Group 20">
          <path id="Path_3" data-name="Path 3" d="M271.629,192.074q30.3-.062,60.6-.033,30.3,0,60.6.041c1.557.008,1.979-.323,1.979-1.946q-.074-60.595,0-121.2c0-1.557-.5-1.739-1.847-1.739q-60.682.05-121.363,0c-1.35,0-1.706.315-1.706,1.689q.062,60.769,0,121.529C269.89,191.834,270.321,192.074,271.629,192.074Zm1.78-118.937c0-2.1,0-2.1,2.178-2.1H388.91c2.219,0,2.219,0,2.219,2.219V186.253c0,2.178,0,2.178-2.1,2.178H332.2q-28.409,0-56.827.033c-1.59.008-2-.439-2-2.012Q273.443,129.807,273.41,73.138Z" transform="translate(-269.841 -67.2)" fill="#3da9fc"/>
          <path id="Path_4" data-name="Path 4" d="M404.828,669.566a46.232,46.232,0,0,1,3.718,3.71c.787.886,1.275.754,2.1.017A23.359,23.359,0,0,1,425.7,667.1c18.641-.017,30.591,17.739,23.875,33.771a24.5,24.5,0,0,1-38.881,8.927c-.936-.828-1.433-.82-2.228.083a33.035,33.035,0,0,1-3.371,3.354c-1.035.894-1.043,1.441.017,2.393a32.631,32.631,0,0,0,49.415-6.94c.927-1.466.919-1.466,1.888.058a33.208,33.208,0,0,0,8.621,9.143,32.665,32.665,0,0,0,40.926-2.418c.853-.787.944-1.259.05-2.046a35.878,35.878,0,0,1-3.379-3.354c-.894-1.019-1.424-1.118-2.592-.149-7.892,6.517-16.761,8.033-26.086,3.818-9.308-4.2-14.343-11.776-14.41-22.045-.066-10.41,4.961-18.128,14.393-22.385s18.393-2.691,26.335,4.008c.9.762,1.366.737,2.1-.083a35.882,35.882,0,0,1,3.379-3.354c1.093-.928,1.135-1.491-.008-2.509a32.576,32.576,0,0,0-49.382,7.056c-.845,1.333-1.085,1.168-1.863-.033-5.383-8.389-13.01-13.515-22.89-14.931-10.128-1.457-19.047,1.4-26.724,8.182C404.075,668.357,403.984,668.813,404.828,669.566Z" transform="translate(-393.052 -610.048)" fill="#3da9fc"/>
          <path id="Path_5" data-name="Path 5" d="M1352.366,228.348a30.935,30.935,0,0,1,3.279.008c1.259.1,1.756-.273,1.706-1.631-.108-2.625-.008-5.25-.05-7.876-.017-.9.265-1.284,1.209-1.275,3.279.033,6.567.025,9.846.008.836-.008,1.176.29,1.151,1.151-.05,1.7-.017,3.4-.017,5.085,0,4.671,0,4.638,4.662,4.546,1.085-.025,1.416-.373,1.4-1.441-.05-4.05-.017-8.1-.017-12.149v-9.192c0-4.563,0-4.522-4.547-4.513-1.283,0-1.557.464-1.523,1.64.083,2.625-.017,5.25.05,7.876.025,1.085-.356,1.424-1.416,1.408-3.114-.05-6.236-.066-9.358.008-1.217.025-1.49-.464-1.441-1.557.066-1.582.017-3.172.017-4.762,0-4.77,0-4.77-4.77-4.588h-.166c-.82-.066-1.192.273-1.184,1.135q.025,12.472,0,24.952C1351.2,228.033,1351.53,228.365,1352.366,228.348Z" transform="translate(-1261.595 -189.956)" fill="#3da9fc"/>
          <path id="Path_6" data-name="Path 6" d="M720.089,228.7c4.977-.075,9.963-.033,14.948-.033,4.257,0,4.207,0,4.2-4.2,0-1.176-.389-1.507-1.515-1.482-3.122.066-6.244.025-9.358.025-4.24,0-4.215,0-4.016-4.223.041-.969.431-1.2,1.3-1.193,2.733.033,5.474.017,8.215.017,4.141,0,4.108,0,3.983-4.091-.033-1.052-.439-1.292-1.383-1.284-2.791.041-5.582.017-8.372.017-3.818,0-3.776,0-3.743-3.851.008-1.093.373-1.433,1.433-1.408,2.956.05,5.913.017,8.869.017,4.132,0,4.1,0,4.041-4.207-.017-1.1-.4-1.408-1.441-1.4-5.805.033-11.61.041-17.407-.008-1.184-.008-1.491.422-1.474,1.54.05,4.05.025,8.1.025,12.157,0,3.942.058,7.884-.025,11.826C718.325,228.28,718.7,228.727,720.089,228.7Z" transform="translate(-681.167 -190.285)" fill="#3da9fc"/>
          <path id="Path_7" data-name="Path 7" d="M1013.063,227.6a18.182,18.182,0,0,0,6.277,1.06,15.464,15.464,0,0,0,9.168-2.575c1.681-1.176,1.689-1.168.331-2.6-.53-.555-1.093-1.077-1.565-1.681-.613-.77-1.118-.961-2.021-.282a9.63,9.63,0,0,1-5.225,1.731c-4.232.273-7.528-1.772-8.571-5.391-.977-3.362-.431-6.493,2.236-8.869a8.254,8.254,0,0,1,9.656-1.25c2.377,1.234,3.6.629,4.969-1.068a1.727,1.727,0,0,1,.356-.34c1.019-.679.737-1.193-.108-1.838-4.207-3.213-8.878-3.768-13.846-2.451A13.106,13.106,0,0,0,1005,214.461C1004.715,220.722,1007.688,225.591,1013.063,227.6Z" transform="translate(-944.046 -190.272)" fill="#3da9fc"/>
          <path id="Path_8" data-name="Path 8" d="M400.691,207.076c1.805-.041,3.619.075,5.416-.041,1.35-.091,1.665.422,1.648,1.689-.058,5.192-.025,10.393-.025,15.585,0,4.654,0,4.621,4.654,4.571,1.143-.017,1.507-.356,1.5-1.515-.058-5.308-.025-10.608-.025-15.917,0-4.381,0-4.381,4.323-4.381,4.083,0,4.05,0,3.983-4.074-.017-1.093-.389-1.416-1.441-1.4-3.337.05-6.675.017-10.012.017H403.49c-4.3,0-4.273,0-4.083,4.273C399.441,206.844,399.8,207.1,400.691,207.076Z" transform="translate(-388.567 -190.463)" fill="#3da9fc"/>
          <path id="Path_9" data-name="Path 9" d="M516.093,1007.175c3.288,0,6.567.017,9.855-.008,2.807-.017,4.72-1.814,4.712-4.364s-1.913-4.331-4.737-4.339q-9.851-.025-19.7,0c-2.791.008-4.787,1.8-4.828,4.273-.041,2.542,1.987,4.414,4.853,4.431C509.526,1007.183,512.8,1007.175,516.093,1007.175Z" transform="translate(-482.164 -921.33)" fill="#3da9fc"/>
          <path id="Path_10" data-name="Path 10" d="M1204.755,998.4c-3.337,0-6.683-.025-10.02.008a4.359,4.359,0,1,0,.066,8.7q9.937.025,19.875,0c2.807-.008,4.712-1.822,4.7-4.389-.016-2.551-1.921-4.3-4.77-4.315C1211.331,998.393,1208.043,998.4,1204.755,998.4Z" transform="translate(-1113.835 -921.277)" fill="#3da9fc"/>
          <path id="Path_11" data-name="Path 11" d="M269.2,1682.041H275v13.407h3.379v-13.407h5.789V1679.3H269.2Z" transform="translate(-269.2 -1545.797)" fill="#3da9fc"/>
          <path id="Path_12" data-name="Path 12" d="M483.871,1688.41h9.176v-2.75h-9.176v-3.611h9.664V1679.3H480.5v16.149h13.142l.406-2.75H483.871Z" transform="translate(-463.002 -1545.797)" fill="#3da9fc"/>
          <path id="Path_13" data-name="Path 13" d="M677.655,1677.875c2.874,0,3.876,1.515,4.323,2.683h3.428c-.522-2.683-2.882-5.358-7.71-5.358a8.177,8.177,0,0,0-8.6,8.439c0,4.48,2.807,8.4,8.414,8.4,4.894,0,7.056-2.526,7.851-5.342h-3.4c-.7,1.656-1.772,2.683-4.3,2.683-3.346,0-5.018-2.667-5.018-5.863S674.433,1677.875,677.655,1677.875Z" transform="translate(-635.983 -1542.036)" fill="#3da9fc"/>
          <path id="Path_14" data-name="Path 14" d="M912.086,1685.519h-8.116V1679.3H900.6v16.149h3.37v-7.188h8.116v7.188h3.37V1679.3h-3.37Z" transform="translate(-848.312 -1545.797)" fill="#3da9fc"/>
          <path id="Path_15" data-name="Path 15" d="M1213.37,1688.41h9.176v-2.75h-9.176v-3.611h9.664V1679.3H1210v16.149h13.142l.406-2.75H1213.37Z" transform="translate(-1132.089 -1545.797)" fill="#3da9fc"/>
          <path id="Path_16" data-name="Path 16" d="M1396.171,1686.712c-.762-1.466-3-4.8-4.662-7.412H1387.5l6.667,9.772a.732.732,0,0,1,.182.489v5.9h3.387v-5.838a.645.645,0,0,1,.1-.414l6.749-9.9H1400.9C1399.21,1681.909,1396.982,1685.254,1396.171,1686.712Z" transform="translate(-1294.89 -1545.797)" fill="#3da9fc"/>
          <path id="Path_17" data-name="Path 17" d="M1618.671,1692.7v-4.29h9.167v-2.75h-9.167v-3.611h9.664V1679.3H1615.3v16.149h13.142l.4-2.75Z" transform="translate(-1503.825 -1545.797)" fill="#3da9fc"/>
        </g>
      </g>
    </g>
  </g>
</svg>
