<svg id="LOGO" xmlns="http://www.w3.org/2000/svg" width="38.08" height="38.07" viewBox="0 0 38.08 38.07">
  <g id="Group_21" data-name="Group 21" transform="translate(0 0)">
    <g id="logo_10_">
      <g id="Group_20" data-name="Group 20">
        <path id="Path_3" data-name="Path 3" d="M270.426,105.267q9.236-.019,18.475-.01t18.475.013c.475,0,.6-.1.6-.593q-.023-18.472,0-36.947c0-.475-.151-.53-.563-.53q-18.5.015-37,0c-.412,0-.52.1-.52.515q.019,18.525,0,37.048C269.9,105.194,270.027,105.267,270.426,105.267Zm.543-36.257c0-.639,0-.639.664-.639h34.546c.677,0,.677,0,.677.677v34.445c0,.664,0,.664-.641.664H288.891q-8.661,0-17.323.01c-.485,0-.611-.134-.611-.613Q270.979,86.285,270.969,69.01Z" transform="translate(-269.899 -67.2)" fill="#3da9fc"/>
        <path id="Path_4" data-name="Path 4" d="M404.416,662.264a14.107,14.107,0,0,1,1.133,1.131c.24.27.389.23.641.005a7.121,7.121,0,0,1,4.587-1.888,7.458,7.458,0,1,1-4.575,13.016c-.285-.253-.437-.25-.679.025a10.066,10.066,0,0,1-1.028,1.022c-.316.273-.318.439.005.73a9.948,9.948,0,0,0,15.064-2.115c.283-.447.28-.447.576.018A10.126,10.126,0,0,0,422.769,677a9.958,9.958,0,0,0,12.476-.737c.26-.24.288-.384.015-.624a10.945,10.945,0,0,1-1.03-1.022c-.273-.31-.434-.341-.79-.045a7.142,7.142,0,0,1-7.952,1.164,7.418,7.418,0,0,1-.005-13.544,7.149,7.149,0,0,1,8.028,1.222c.275.232.417.225.641-.025a10.939,10.939,0,0,1,1.03-1.023c.333-.283.346-.454,0-.765a9.931,9.931,0,0,0-15.054,2.151c-.258.406-.331.356-.568-.01a9.622,9.622,0,0,0-6.978-4.552,9.725,9.725,0,0,0-8.147,2.494C404.186,661.9,404.158,662.035,404.416,662.264Z" transform="translate(-400.843 -644.121)" fill="#3da9fc"/>
        <path id="Path_5" data-name="Path 5" d="M1351.555,209.364a9.441,9.441,0,0,1,1,0c.384.03.535-.083.52-.5-.033-.8,0-1.6-.015-2.4-.005-.275.081-.391.369-.389,1,.01,2,.008,3,0,.255,0,.359.088.351.351-.015.518,0,1.035,0,1.55,0,1.424,0,1.414,1.421,1.386.331-.008.432-.114.427-.439-.015-1.234-.005-2.469-.005-3.7v-2.8c0-1.391,0-1.378-1.386-1.376-.391,0-.475.141-.464.5.025.8-.005,1.6.015,2.4.008.331-.108.434-.432.429-.949-.015-1.9-.02-2.853,0-.371.008-.454-.141-.439-.475.02-.482.005-.967.005-1.452,0-1.454,0-1.454-1.454-1.4h-.051c-.25-.02-.363.083-.361.346q.007,3.8,0,7.606C1351.2,209.268,1351.3,209.369,1351.555,209.364Z" transform="translate(-1323.901 -197.661)" fill="#3da9fc"/>
        <path id="Path_6" data-name="Path 6" d="M718.889,209.722c1.517-.023,3.037-.01,4.557-.01,1.3,0,1.282,0,1.28-1.28,0-.358-.119-.459-.462-.452-.952.02-1.9.008-2.853.008-1.293,0-1.285,0-1.224-1.288.013-.3.131-.366.4-.364.833.01,1.669.005,2.5.005,1.262,0,1.252,0,1.214-1.247-.01-.321-.134-.394-.422-.391-.851.013-1.7.005-2.552.005-1.164,0-1.151,0-1.141-1.174,0-.333.114-.437.437-.429.9.015,1.8.005,2.7.005,1.26,0,1.25,0,1.232-1.282-.005-.336-.121-.429-.439-.427-1.77.01-3.539.013-5.307,0-.361,0-.454.129-.449.47.015,1.235.008,2.469.008,3.706,0,1.2.018,2.4-.008,3.605C718.352,209.593,718.465,209.73,718.889,209.722Z" transform="translate(-707.042 -198.011)" fill="#3da9fc"/>
        <path id="Path_7" data-name="Path 7" d="M1007.443,209.377a5.542,5.542,0,0,0,1.914.323,4.714,4.714,0,0,0,2.795-.785c.512-.358.515-.356.1-.793-.161-.169-.333-.328-.477-.512-.187-.235-.341-.293-.616-.086a2.935,2.935,0,0,1-1.593.528,2.369,2.369,0,0,1-2.613-1.643,2.468,2.468,0,0,1,.682-2.7,2.516,2.516,0,0,1,2.944-.381,1.027,1.027,0,0,0,1.515-.326.527.527,0,0,1,.109-.1c.311-.207.225-.364-.033-.56a4.637,4.637,0,0,0-4.221-.747,4,4,0,0,0-2.964,3.784A3.83,3.83,0,0,0,1007.443,209.377Z" transform="translate(-986.421 -197.996)" fill="#3da9fc"/>
        <path id="Path_8" data-name="Path 8" d="M399.755,203.264c.55-.013,1.1.023,1.651-.013.411-.028.507.129.5.515-.018,1.583-.008,3.168-.008,4.751,0,1.419,0,1.409,1.419,1.394.348-.005.459-.109.457-.462-.018-1.618-.008-3.234-.008-4.852,0-1.336,0-1.336,1.318-1.336,1.245,0,1.235,0,1.214-1.242-.005-.333-.119-.432-.439-.427-1.017.015-2.035.005-3.052.005h-2.2c-1.31,0-1.3,0-1.245,1.3C399.374,203.194,399.485,203.272,399.755,203.264Z" transform="translate(-396.077 -198.2)" fill="#3da9fc"/>
        <path id="Path_9" data-name="Path 9" d="M505.874,1001.11c1,0,2,.005,3,0a1.331,1.331,0,1,0-.008-2.653q-3-.008-6.006,0a1.334,1.334,0,1,0,.008,2.653C503.872,1001.112,504.872,1001.11,505.874,1001.11Z" transform="translate(-495.549 -974.94)" fill="#3da9fc"/>
        <path id="Path_10" data-name="Path 10" d="M1194.566,998.395c-1.018,0-2.037-.008-3.055,0a1.329,1.329,0,1,0,.02,2.651q3.029.008,6.059,0a1.331,1.331,0,1,0-.02-2.653C1196.57,998.392,1195.568,998.395,1194.566,998.395Z" transform="translate(-1166.866 -974.884)" fill="#3da9fc"/>
      </g>
    </g>
  </g>
</svg>
